<?xml version="1.0" encoding="UTF-8" standalone="no"?>
<svg xmlns:cc="http://creativecommons.org/ns#" xmlns:dc="http://purl.org/dc/elements/1.1/"
    xmlns:inkscape="http://www.inkscape.org/namespaces/inkscape"
    xmlns:rdf="http://www.w3.org/1999/02/22-rdf-syntax-ns#"
    xmlns:sodipodi="http://sodipodi.sourceforge.net/DTD/sodipodi-0.dtd"
    xmlns:xlink="http://www.w3.org/1999/xlink" height="1280.000000pt" id="svg2"
    preserveAspectRatio="xMidYMid meet" version="1.0" viewBox="0 0 1276.000000 1280.000000"
    width="1276.000000pt" xmlns="http://www.w3.org/2000/svg" inkscape:version="0.91 r13725"
    sodipodi:docname="save_the_world.svg">
    <metadata id="metadata16">
        <rdf:RDF>
            <cc:Work rdf:about="">
                <dc:format>image/svg+xml</dc:format>
                <dc:type rdf:resource="http://purl.org/dc/dcmitype/StillImage" />
                <dc:title></dc:title>
            </cc:Work>
        </rdf:RDF>
    </metadata>
    <defs id="defs14">
        <linearGradient id="linearGradient4337-6" inkscape:collect="always">
            <stop style="stop-color:#c6ff00;stop-opacity:1;" id="stop4359" offset="0" />
            <stop style="stop-color:#c6ff00;stop-opacity:0;" id="stop4361" offset="1" />
        </linearGradient>
        <linearGradient id="linearGradient4337" inkscape:collect="always">
            <stop style="stop-color:#c6ff00;stop-opacity:1;" id="stop4339" offset="0" />
            <stop style="stop-color:#c6ff00;stop-opacity:0;" id="stop4341" offset="1" />
        </linearGradient>
        <linearGradient gradientTransform="matrix(0.64561127,0,0,0.64561127,220.39741,195.13427)"
            gradientUnits="userSpaceOnUse" id="linearGradient4181" x1="-7.7894287" x2="1287.7894"
            y1="640" y2="640" inkscape:collect="always" xlink:href="#linearGradient4165" />
        <linearGradient id="linearGradient4165" inkscape:collect="always">
            <stop style="stop-color:#00a2ff;stop-opacity:1;" id="stop4167" offset="0" />
            <stop style="stop-color:#00a2ff;stop-opacity:0;" id="stop4169" offset="1" />
        </linearGradient>
        <radialGradient cx="655.70856" cy="336.72421" fx="655.70856" fy="336.72421"
            gradientTransform="matrix(1,0,0,1.0238357,0,-8.0260464)" gradientUnits="userSpaceOnUse"
            id="radialGradient4329" r="394.52789" inkscape:collect="always"
            xlink:href="#linearGradient4337" />
        <radialGradient cx="655.70856" cy="336.72421" fx="655.70856" fy="336.72421"
            gradientTransform="matrix(1,0,0,1.0238357,0,-8.0260464)" gradientUnits="userSpaceOnUse"
            id="radialGradient4355" r="394.52789" inkscape:collect="always"
            xlink:href="#linearGradient4337-6" />
    </defs>
    <sodipodi:namedview bordercolor="#666666" borderopacity="1" gridtolerance="10"
        guidetolerance="10" id="namedview12" objecttolerance="10" pagecolor="#ffffff"
        showgrid="false" showguides="false" inkscape:current-layer="layer3" inkscape:cx="724.7092"
        inkscape:cy="661.02347" inkscape:pageopacity="0" inkscape:pageshadow="2"
        inkscape:window-height="715" inkscape:window-maximized="1" inkscape:window-width="1366"
        inkscape:window-x="0" inkscape:window-y="0" inkscape:zoom="0.34" />
    <g id="layer3" inkscape:groupmode="layer" inkscape:label="Stern">
        <path
            style="fill:url(#radialGradient4355);fill-opacity:1;stroke:url(#radialGradient4329);stroke-width:5.19999981;stroke-miterlimit:4;stroke-dasharray:none;stroke-opacity:1;fill-rule:nonzero;opacity:1"
            d="M 936.6881,611.58611 715.81512,428.24574 858.95116,663.70814 687.97831,466.69521 734.1429,730.49167 665.85946,465.17662 603.50155,740.0808 634.49862,454.22937 498.09633,682.83046 603.34277,424.50351 373.40031,636.88561 555.15745,429.00508 305.46584,528.10107 546.10633,363.71984 283.51699,436.91494 519.46077,330.10034 261.65097,282.68492 533.36693,316.81634 307.74667,166.7016 548.11258,278.08338 376.81035,62.158003 597.68459,254.20487 453.86002,-4.0342336 623.40064,228.21806 578.66829,-31.501815 649.75975,196.10484 711.4285,-66.613353 679.00046,223.86799 814.71486,-23.156559 708.03618,231.09381 937.97928,62.380915 760.46112,267.23907 1008.0332,149.99629 765.27262,291.87748 1029.9821,241.18242 796.15844,331.18112 1049.7292,381.61891 780.13215,361.28103 1005.7524,511.39576 763.26637,416.82989 Z"
            id="path4283" transform="matrix(1.6143047,0,0,1.5824916,-421.62841,107.39039)"
            inkscape:flatsided="false" inkscape:randomized="0.05" inkscape:rounded="0"
            inkscape:transform-center-x="7.2922244" inkscape:transform-center-y="2.5116135"
            sodipodi:arg1="0.73459446" sodipodi:arg2="0.88204722" sodipodi:cx="656.47058"
            sodipodi:cy="336.47058" sodipodi:r1="393.15948" sodipodi:r2="121.3303"
            sodipodi:sides="20" sodipodi:type="star" />
        <path
            style="opacity:1;fill:#c6ff00;fill-opacity:1;fill-rule:nonzero;stroke:none;stroke-width:6.5;stroke-miterlimit:4;stroke-dasharray:none;stroke-opacity:1"
            d="M 545.62319,398.29663 182.16516,159.24292 384.39749,566.16169 115.45155,167.69332 232.88684,640.15987 85.544791,216.96915 54.276151,615.06216 55.505763,204.71194 -122.08193,597.3111 25.050641,167.98559 -254.01603,517.15986 -17.925001,154.35156 -413.26757,364.20948 -40.526082,126.1484 -496.43006,205.50375 -39.434352,56.539147 -491.62405,15.370677 -66.129883,22.320508 -453.33473,-112.65516 -22.731632,3.8308645 -392.30789,-267.60351 13.627094,-39.346073 -266.34213,-384.01742 37.86375,-37.000204 -59.724536,-468.89772 81.484397,-50.002198 124.81349,-510.70248 125.72749,-38.557822 263.76802,-446.04324 142.03839,-46.98509 426.17755,-366.3866 171.2403,-23.658444 540.80853,-264.43439 194.84308,31.372768 641.20346,-78.723033 193.75135,43.730552 620.10779,106.28661 194.61362,99.336775 598.04829,285.40234 177.04863,153.6903 Z"
            id="path4363" transform="matrix(1.0434338,0,0,1.0020445,553.32657,582.22062)"
            inkscape:export-filename="/home/berlin-suedwest/Downloads/path4363.png"
            inkscape:export-xdpi="15.66" inkscape:export-ydpi="15.66" inkscape:flatsided="false"
            inkscape:randomized="0.05" inkscape:rounded="0" inkscape:transform-center-x="-16.330179"
            inkscape:transform-center-y="-1.4763617" sodipodi:arg1="0.67474094"
            sodipodi:arg2="0.80129269" sodipodi:cx="75.294113" sodipodi:cy="65.882355"
            sodipodi:r1="572.51465" sodipodi:r2="128.52164" sodipodi:sides="20"
            sodipodi:type="star" />
    </g>
    <g style="display:inline" id="layer2" inkscape:groupmode="layer" inkscape:label="Wasser"
        sodipodi:insensitive="true">
        <circle
            style="display:inline;fill:#c6ffff;fill-opacity:1;stroke:#000000;stroke-width:15.49467182;stroke-miterlimit:4;stroke-dasharray:none;stroke-opacity:1"
            cx="626.07037" cy="609.41174" id="path4163-5" r="410.47281"
            inkscape:transform-center-x="-149.50996" inkscape:transform-center-y="-43.493835" />
        <circle
            style="fill:url(#linearGradient4181);fill-opacity:1;stroke:#000000;stroke-width:15.49467087;stroke-miterlimit:4;stroke-dasharray:none;stroke-opacity:1"
            cx="633.58868" cy="608.32544" id="path4163" r="410.47281"
            inkscape:transform-center-x="-149.50996" inkscape:transform-center-y="-43.493835" />
    </g>
    <g style="display:inline" id="layer1" inkscape:groupmode="layer" inkscape:label="Erde"
        sodipodi:insensitive="true">
        <g style="fill:#000000;stroke:none" id="g4"
            transform="matrix(0.06466382,0,0,-0.06466382,212.707,1021.5555)">
            <path
                style="fill:#00a200;fill-opacity:1;stroke:#000000;stroke-width:240;stroke-miterlimit:4;stroke-dasharray:none;stroke-opacity:1"
                d="M 6085,12793 C 5305,12748 4664,12608 4000,12340 2828,11866 1827,11058 1108,10005 563,9207 202,8277 65,7316 17,6978 6,6797 6,6395 6,5999 17,5828 66,5490 328,3644 1384,2003 2958,997 3836,436 4801,112 5880,18 c 218,-19 821,-16 1045,5 438,42 832,116 1215,227 1708,494 3133,1684 3930,3280 224,450 349,786 495,1340 145,548 189,888 189,1460 1,415 -22,698 -90,1105 -226,1363 -858,2582 -1836,3540 -774,760 -1678,1286 -2723,1585 -548,157 -744,190 -1390,230 -137,9 -508,11 -630,3 z m 522,-43 63,0 -51,-96 c -51,-95 -52,-96 -62,-225 -6,-76 -6,-134 -1,-139 10,-10 176,-61 181,-56 2,2 11,42 20,89 16,81 20,90 64,133 l 47,46 319,-142 c 175,-79 365,-166 423,-195 l 105,-52 263,21 262,22 73,72 c 40,40 75,72 79,72 3,0 174,-81 380,-180 l 373,-180 168,0 169,0 96,-57 c 296,-173 640,-420 922,-662 113,-97 322,-293 317,-297 -2,-2 -79,25 -173,60 -408,152 -682,286 -817,398 l -48,40 -371,29 -372,30 -83,-83 c -46,-45 -83,-89 -83,-98 1,-8 18,-55 39,-105 l 38,-90 71,-3 c 40,-2 72,-6 73,-10 0,-4 6,-63 13,-132 7,-69 12,-126 12,-127 -1,-1 -55,30 -120,69 -93,55 -120,68 -127,57 -5,-8 -41,-72 -81,-142 -63,-112 -75,-127 -93,-122 -11,4 -47,9 -80,12 -33,2 -69,8 -80,13 -11,5 -31,10 -45,12 -18,2 -30,14 -43,41 -20,41 -27,42 -108,27 -36,-7 -63,-20 -84,-40 l -30,-29 -45,34 c -43,33 -49,35 -128,35 -89,0 -84,3 -106,-67 -6,-19 -2,-22 44,-28 l 50,-7 -45,-56 c -41,-53 -43,-58 -30,-79 21,-31 20,-33 -23,-33 -49,0 -171,31 -256,65 -74,30 -154,34 -206,12 -42,-17 -103,-76 -234,-225 l -99,-114 79,-79 79,-79 57,0 c 32,0 92,-10 133,-22 64,-19 76,-26 84,-50 11,-32 24,-33 204,-21 l 98,6 117,93 c 123,99 123,99 283,126 65,11 66,11 173,-32 98,-39 112,-42 164,-36 154,18 175,19 168,8 -10,-16 21,-82 80,-172 27,-41 72,-130 100,-196 29,-67 75,-155 102,-197 45,-66 52,-83 59,-148 8,-71 9,-74 33,-72 14,2 80,-2 148,-8 68,-6 125,-9 128,-6 3,2 -12,31 -32,63 -27,44 -55,71 -110,108 -61,42 -75,57 -90,95 -9,25 -48,126 -86,224 -39,98 -68,180 -66,181 1,2 23,11 48,20 52,20 51,21 100,-74 16,-30 51,-89 79,-129 49,-74 52,-76 168,-135 l 118,-61 5,-86 c 8,-130 24,-150 170,-204 l 115,-42 85,45 c 121,64 122,65 149,115 l 25,45 -42,56 -43,56 109,0 110,0 85,-93 c 83,-90 88,-94 231,-165 118,-58 146,-76 142,-90 -2,-9 -7,-44 -11,-76 l -7,-59 88,-88 88,-89 -34,-35 c -19,-19 -37,-35 -42,-35 -23,0 -402,177 -515,241 l -132,74 -223,-12 c -123,-7 -242,-15 -264,-18 l -41,-6 4,-92 c 2,-51 6,-102 8,-113 3,-15 56,-55 168,-128 132,-86 197,-120 340,-180 154,-64 447,-221 463,-247 3,-5 0,-55 -6,-111 -11,-94 -17,-112 -64,-200 -28,-54 -54,-98 -59,-98 -4,0 -43,24 -87,53 -55,37 -134,110 -262,243 l -183,189 -51,1 c -49,0 -55,3 -207,123 l -157,122 -72,-3 -72,-3 -21,-85 -21,-85 -35,3 c -64,6 -69,10 -70,55 0,23 -3,50 -7,59 -4,9 -135,112 -292,228 -157,116 -284,214 -283,216 0,3 30,38 66,78 63,70 68,74 146,96 45,12 81,26 81,30 0,3 -21,38 -48,76 l -47,69 -54,3 c -49,3 -65,11 -172,85 l -119,81 -115,-28 -115,-28 -72,58 c -39,33 -106,88 -147,122 l -76,64 -97,-6 c -147,-8 -290,14 -423,64 l -110,42 -135,-12 -135,-12 -145,-102 -145,-102 -135,-23 c -123,-20 -141,-26 -205,-66 -38,-24 -104,-53 -145,-65 -70,-20 -77,-25 -115,-76 l -40,-55 -126,6 -125,6 -135,-121 c -86,-78 -136,-131 -141,-148 -4,-15 -23,-99 -44,-188 l -37,-160 -132,-140 c -128,-135 -132,-141 -148,-206 -10,-39 -17,-107 -17,-162 0,-91 2,-101 50,-221 64,-161 146,-325 328,-658 l 147,-267 57,-35 c 54,-32 67,-35 166,-41 l 107,-7 138,-109 c 97,-75 147,-108 165,-108 15,0 117,-7 227,-15 110,-8 205,-15 210,-15 6,0 26,-25 45,-56 l 34,-56 52,7 52,6 92,-107 93,-106 41,5 c 23,3 59,9 82,12 l 40,7 26,-179 25,-178 -63,-89 c -35,-49 -97,-118 -137,-153 l -74,-64 29,-167 c 15,-93 39,-302 52,-470 25,-302 25,-302 5,-372 -38,-137 -38,-137 -169,-224 l -119,-79 -143,-426 -142,-426 44,-217 44,-217 -28,-187 -28,-188 -88,-115 -88,-116 -7,-114 c -5,-77 -15,-137 -30,-182 l -23,-67 88,-26 88,-26 100,45 99,45 124,0 124,0 208,-67 209,-67 131,66 c 73,37 230,125 349,196 l 217,129 107,11 c 59,7 111,17 115,23 3,6 12,84 20,172 l 13,161 57,66 58,67 98,12 c 157,20 163,22 262,105 l 92,76 78,0 78,0 279,250 c 314,282 288,245 319,450 9,58 26,153 39,212 23,106 24,108 131,266 l 107,159 67,7 c 36,3 83,6 105,6 24,0 81,19 155,51 98,44 150,77 341,217 l 226,165 74,126 c 133,227 180,309 180,318 0,5 -34,21 -75,36 l -75,26 -38,-40 -37,-40 -93,75 c -117,95 -111,91 -120,65 -6,-14 -12,21 -20,111 -8,88 -9,138 -2,150 23,44 12,74 -53,142 -73,75 -113,151 -182,338 -43,116 -47,137 -61,291 -12,138 -12,177 -1,230 8,43 11,99 6,169 -6,109 -2,444 7,516 l 5,41 75,-17 c 41,-10 78,-21 81,-24 4,-4 -4,-109 -18,-234 l -25,-227 48,-104 48,-103 0,-177 c 0,-268 18,-395 80,-579 l 52,-152 121,-153 c 66,-83 121,-154 123,-155 1,-2 27,15 57,37 53,41 54,41 143,41 l 89,1 285,315 285,315 17,82 c 9,45 17,89 18,98 0,18 -61,105 -203,289 -104,134 -110,137 -193,77 -30,-21 -58,-36 -62,-33 -3,4 -11,47 -18,97 -10,75 -20,103 -56,167 -36,63 -48,76 -65,74 -15,-2 -28,6 -39,23 -14,21 -15,40 -10,113 4,48 13,114 19,146 12,59 12,60 75,94 35,19 64,33 66,31 10,-14 110,-299 128,-368 l 23,-84 135,-116 c 74,-64 207,-185 295,-270 l 159,-154 44,-141 c 25,-77 59,-211 76,-296 l 32,-155 69,-27 70,-26 -3,-199 c -2,-109 -15,-373 -28,-587 -14,-214 -24,-390 -22,-391 2,-1 22,-12 46,-24 23,-12 42,-26 42,-31 0,-31 -108,-393 -166,-556 C 12101,3597 11756,2978 11303,2412 10364,1240 9034,438 7565,156 7166,80 6815,48 6375,48 5915,48 5558,82 5144,165 l -162,32 -95,99 c -52,55 -105,112 -118,127 -25,29 -40,34 -1434,469 l -260,81 -170,112 C 2178,1563 1567,2175 1087,2906 l -106,161 -52,368 c -51,367 -52,368 -89,434 -21,36 -50,109 -66,160 l -28,94 17,136 c 12,99 21,139 33,146 8,6 43,28 77,50 l 61,40 -2,55 c -1,30 -5,105 -8,165 l -5,110 105,77 106,78 0,107 0,108 241,315 c 132,173 244,319 249,324 6,6 46,-2 102,-19 l 93,-27 39,44 c 25,27 141,231 301,528 l 261,484 144,29 144,29 41,46 c 80,91 77,84 65,157 -9,53 -28,100 -98,230 l -87,162 -120,75 -120,75 -3,185 -2,184 -178,95 -177,94 2,244 3,244 40,74 41,74 -40,66 c -38,63 -46,70 -148,127 l -108,61 -24,105 -24,105 17,182 c 10,100 14,188 9,196 -12,20 -224,297 -227,297 -2,0 -72,-27 -155,-60 -148,-58 -155,-60 -247,-60 -52,0 -94,2 -94,5 0,11 141,215 242,350 332,445 743,865 1177,1203 185,144 174,139 301,141 85,2 151,-5 290,-30 l 181,-32 37,36 c 22,21 47,62 60,97 18,46 43,81 101,142 l 77,81 83,5 c 72,4 91,9 139,38 66,40 192,90 259,103 27,6 181,20 343,32 l 295,21 31,30 c 17,16 53,56 80,89 48,58 50,59 99,59 69,-1 194,-18 227,-31 15,-6 29,-22 33,-37 3,-14 16,-39 27,-55 16,-22 19,-39 16,-77 -5,-44 -3,-48 12,-40 10,5 62,56 115,112 87,93 105,119 184,268 l 88,165 69,7 c 38,4 103,10 145,13 l 76,6 46,82 47,82 -43,6 -42,6 50,3 c 208,12 399,17 505,14 69,-2 153,-4 187,-4 z M 223,7247 c 37,-149 87,-376 111,-503 l 44,-231 -8,-219 -8,-219 94,-171 c 52,-93 94,-175 94,-182 0,-6 -21,-85 -46,-174 l -46,-163 -11,-300 -10,-301 61,-174 c 64,-181 87,-284 156,-696 l 32,-192 60,-98 c 45,-74 74,-140 120,-276 34,-99 58,-176 53,-171 -14,15 -137,240 -207,380 -346,692 -555,1420 -637,2218 -43,416 -37,982 15,1400 23,178 51,345 59,345 3,0 37,-123 74,-273 z"
                id="path6" inkscape:connector-curvature="0" />
            <path
                d="m 8225,11360 10,-130 -85,-97 c -59,-67 -95,-118 -113,-162 -15,-35 -26,-65 -24,-67 4,-5 461,17 466,22 7,6 -39,152 -79,254 -21,52 -43,131 -50,175 -7,44 -16,86 -20,94 -7,13 -78,40 -105,41 -7,0 -7,-42 0,-130 z"
                id="path8" inkscape:connector-curvature="0" />
            <path
                d="m 9968,3259 -137,-110 -163,-11 -163,-11 -87,-66 c -85,-64 -88,-68 -118,-146 -30,-77 -36,-84 -136,-173 -106,-95 -138,-112 -206,-112 -42,0 -45,-5 -22,-38 15,-21 13,-25 -45,-90 l -61,-67 0,-82 c 0,-83 0,-83 26,-83 33,0 335,30 350,35 6,2 139,146 295,320 156,175 302,338 324,362 37,41 46,45 110,55 69,11 71,11 153,92 45,44 82,85 82,91 0,17 -51,145 -58,145 -4,-1 -69,-50 -144,-111 z"
                id="path10" inkscape:connector-curvature="0" />
        </g>
    </g>
</svg>
